<svg width="28" height="28" viewBox="0 0 28 28" fill="none" xmlns="http://www.w3.org/2000/svg">
<path id="Vector" d="M12.6666 7.33341H15.3333V10.0001H12.6666V7.33341ZM12.6666 12.6667H15.3333V20.6667H12.6666V12.6667ZM14 0.666748C6.63996 0.666748 0.666626 6.64008 0.666626 14.0001C0.666626 21.3601 6.63996 27.3334 14 27.3334C21.36 27.3334 27.3333 21.3601 27.3333 14.0001C27.3333 6.64008 21.36 0.666748 14 0.666748ZM14 24.6667C8.11996 24.6667 3.33329 19.8801 3.33329 14.0001C3.33329 8.12008 8.11996 3.33341 14 3.33341C19.88 3.33341 24.6666 8.12008 24.6666 14.0001C24.6666 19.8801 19.88 24.6667 14 24.6667Z" fill="black"/>
</svg>
